<?xml version="1.0" standalone="no"?>
<!DOCTYPE svg PUBLIC "-//W3C//DTD SVG 20010904//EN"
 "http://www.w3.org/TR/2001/REC-SVG-20010904/DTD/svg10.dtd">
<svg version="1.0" xmlns="http://www.w3.org/2000/svg"
 width="1688.000000pt" height="1688.000000pt" viewBox="0 0 1688.000000 1688.000000"
 preserveAspectRatio="xMidYMid meet">
<metadata>
Created by potrace 1.11, written by Peter Selinger 2001-2013
</metadata>
<g transform="translate(0.000000,1688.000000) scale(0.100000,-0.100000)"
fill="#000000" stroke="none">
<path d="M5180 13663 c-165 -11 -324 -27 -445 -44 -1351 -191 -2198 -876
-2530 -2049 -58 -206 -94 -493 -102 -820 -12 -481 48 -903 184 -1294 36 -104
132 -328 146 -343 2 -1 91 13 198 32 107 19 195 35 197 35 1 0 2 -142 2 -316
0 -195 4 -323 10 -334 15 -27 204 -196 308 -275 94 -72 98 -72 209 -49 l32 6
3 -63 3 -63 130 -68 c204 -105 432 -192 728 -274 16 -5 17 10 17 225 l0 230
58 3 57 3 3 538 c1 346 6 537 12 537 6 0 10 53 10 138 l0 137 69 82 68 81 6
108 c4 59 7 190 7 292 0 177 -1 187 -24 226 -52 89 -68 193 -42 278 l13 46
-41 -19 c-55 -25 -150 -25 -214 0 -46 18 -54 19 -109 6 -87 -20 -163 -52 -205
-86 l-38 -30 0 242 0 242 41 53 c43 56 83 90 139 119 29 15 46 16 110 9 138
-15 186 -9 275 35 68 34 163 61 212 61 10 0 13 -44 13 -216 0 -119 3 -214 8
-212 4 2 45 24 92 49 243 133 488 179 960 179 341 0 628 -35 942 -114 153 -39
259 -74 578 -188 110 -39 269 -49 370 -23 198 51 356 204 405 390 23 89 23
1751 0 1840 -47 180 -195 326 -386 382 -122 35 -461 108 -679 147 -361 64
-678 103 -1035 126 -136 9 -654 11 -765 3z"/>
<path d="M9138 13430 c-78 -13 -143 -39 -205 -79 -98 -65 -157 -138 -204 -256
l-24 -60 -3 -3252 -2 -3253 117 0 c65 0 142 -3 171 -6 l52 -7 0 -473 0 -474
50 0 50 0 0 111 c0 102 2 111 20 116 19 5 20 14 20 209 0 197 1 204 20 204 20
0 20 7 20 295 0 256 2 295 15 295 13 0 15 71 15 575 0 567 0 575 20 575 19 0
20 8 22 228 l3 227 48 3 47 3 0 100 0 99 130 0 129 0 3 -97 3 -98 43 -3 42 -3
0 -230 c0 -222 1 -229 20 -229 20 0 20 -7 20 -575 l0 -575 35 0 35 0 0 -179 0
-180 55 -6 55 -7 0 -313 0 -312 25 5 25 4 0 179 0 178 33 3 32 3 3 65 c2 36 8
68 15 72 7 4 123 8 260 8 l247 0 0 -69 c0 -61 3 -70 20 -76 19 -6 20 -15 20
-211 l0 -204 30 0 30 0 0 65 0 65 30 0 30 0 0 170 c0 162 1 170 19 170 17 0
20 8 23 53 l3 52 40 0 40 0 3 -47 c2 -36 8 -48 22 -53 18 -6 20 -18 22 -168
l3 -162 68 -3 67 -3 0 36 c0 24 4 35 15 35 10 0 15 -10 15 -34 0 -28 5 -35 25
-40 22 -6 24 -12 27 -69 l3 -62 42 -3 42 -3 4 -87 c1 -48 4 379 5 949 2 1148
-1 1093 68 1196 41 60 120 118 189 138 26 8 86 15 132 15 l83 0 0 85 c0 84 0
85 25 85 25 0 25 -1 25 -85 l0 -85 35 0 35 0 0 192 0 191 152 -6 c83 -4 200
-7 260 -7 l108 0 0 -165 0 -165 25 0 c24 0 25 2 25 65 0 67 5 74 44 59 12 -4
16 -20 16 -55 0 -41 3 -49 18 -49 29 0 288 66 397 100 498 160 921 415 1276
769 431 430 681 927 760 1511 7 52 13 185 13 295 0 349 -57 636 -190 954 -336
801 -1130 1416 -2149 1664 -149 37 -313 66 -515 94 -111 15 -275 17 -1510 19
-762 1 -1406 -2 -1432 -6z m2617 -790 c389 -37 727 -197 985 -467 283 -295
408 -661 356 -1038 -66 -474 -266 -925 -586 -1325 -164 -204 -441 -464 -668
-627 -112 -81 -144 -96 -215 -101 -84 -6 -134 12 -265 98 -176 115 -311 226
-477 394 -381 382 -626 838 -736 1366 -40 190 -49 408 -25 550 108 620 664
1093 1351 1150 135 11 160 11 280 0z"/>
<path d="M11520 12228 c-374 -27 -712 -289 -829 -643 -143 -433 59 -910 474
-1118 532 -266 1172 -10 1361 545 70 206 56 462 -36 664 -90 200 -258 368
-462 464 -160 75 -317 102 -508 88z"/>
<path d="M4690 9951 l0 -207 75 -89 75 -90 0 -142 c0 -120 2 -143 15 -143 13
0 15 -68 17 -532 l3 -533 52 -3 53 -3 2 -302 3 -301 365 -63 c201 -35 394 -72
430 -84 127 -40 256 -142 306 -241 103 -203 -14 -464 -261 -584 -180 -87 -516
-154 -771 -154 l-74 0 0 -748 0 -748 644 -317 c354 -174 648 -317 653 -317 5
0 93 534 196 1188 l187 1187 -50 1254 c-27 690 -48 1256 -47 1258 2 1 33 -106
70 -240 l66 -242 16 -310 c8 -170 15 -315 15 -322 0 -15 188 -59 199 -47 4 5
29 185 55 399 l47 390 52 47 c28 26 52 46 54 45 1 -2 -21 -210 -49 -462 l-50
-460 15 -820 15 -820 46 -255 c59 -329 126 -663 182 -915 57 -253 144 -598
153 -608 4 -4 52 48 106 115 345 431 565 946 670 1571 78 469 74 672 -30 1376
-40 274 -84 419 -192 636 -105 209 -228 379 -408 564 -429 440 -1034 752
-1835 945 -305 74 -912 254 -992 295 l-78 39 0 -207z"/>
<path d="M3390 6044 l0 -575 43 3 42 3 3 402 2 402 88 3 87 3 3 148 c1 81 1
147 0 147 -2 0 -55 9 -118 20 -63 11 -123 20 -132 20 -17 0 -18 -34 -18 -576z"/>
</g>
</svg>
