<svg version="1" xmlns="http://www.w3.org/2000/svg" width="2250.667" height="2250.667" viewBox="0 0 1688.000000 1688.000000"><path d="M513 322.1c-84.7 5.8-153.4 29.2-204 69.5-21.1 16.8-43.5 42.8-58 67.3-22 37.2-34.3 76.3-39.2 124.1-1.9 18.4-1.6 68 .5 85 4.8 38.7 13.5 71.4 26.4 99.2 4 8.5 4.8 9.7 6.7 9.3 3.4-.8 35.4-6.5 36.6-6.5.7 0 1 10.8 1 32v32l9.3 9c11.4 11.1 30.5 26 33.2 26 1.1-.1 4.6-.7 7.8-1.5 6.7-1.5 6.5-1.7 6.9 6.5l.3 5.4 6.5 3.8c8.6 5 28.7 14 42.3 19 12.5 4.6 33.1 10.8 35.9 10.8 1.7 0 1.8-1.3 1.8-22.5V868h11v-53.5c0-46.7.2-53.6 1.5-54.1 1.2-.5 1.5-3.1 1.5-14.4v-13.8l7-8.4 7-8.3v-58.8l-3.2-6.4c-3.7-7.7-4.9-18.3-2.6-24.8l1.4-4.1-4 2c-5.4 2.7-15.5 2.6-21.7-.1-4.5-2-4.7-2-11.8-.2-9.6 2.4-18.8 6.6-21.2 9.7-1.9 2.5-1.9 2.4-1.9-22.2v-24.7l2.9-4.3c3.5-5.1 9.8-10.9 14.3-13.2 3.5-1.8 6.5-1.9 20.5-.9l9.2.7 9.8-4.5c7.2-3.4 11.6-4.8 16.6-5.3l6.7-.7V601l4.3-2.7c6.3-4 21.3-10.8 29-13.2 17.2-5.3 58.3-8.6 88.7-7.1 43.3 2.2 78.9 9.5 120.7 24.9 10.4 3.8 21.6 7.5 25.1 8.1 8.6 1.7 23 .8 31.1-2 13.2-4.6 25.7-15.4 31.7-27.2 5.4-10.6 5.4-10.5 5.4-102.3 0-92.6.1-90.4-5.7-102.5-3.7-7.8-15.9-19.7-24.4-23.7-19.2-9.2-102.7-24.5-162.4-29.8-21.4-1.9-81.1-2.8-100.5-1.4zM1029.5 345l-121 .5-5.7 2.3c-6.9 2.8-16.2 9.5-20.6 14.7-4.9 6-9.2 14.8-10.7 22.2-1.3 5.8-1.5 52.9-1.5 328 0 256.3.3 321.3 1.3 321.4.6.1 8.2.4 16.7.8l15.5.6.5 47.5.5 47.5h9l.3-11.1c.2-10.2.4-11.2 2.2-11.7 1.9-.5 2-1.5 2-20.5 0-19.1.1-20 2-20.5s2-1.4 2-29.5c0-24.8.2-29.1 1.5-29.6s1.5-7.8 1.5-57.6c0-56.3 0-57 2-57 1.9 0 2-.7 2-23v-23h10v-20h26v18.9l4.5.7 4.5.6V893h5v115h6v35.9l5.3.3 5.2.3.3 31.2.2 31.3h5v-17.9c0-19.1 0-19.1 5-19.1 1.7 0 1.9-.9 2.2-6.8l.3-6.7 25.8-.3 25.7-.2v7c0 6.3.2 7 2 7 1.9 0 2 .7 2 21v21h6v-6.4c0-6.3.1-6.5 2.8-6.8l2.7-.3.3-16.8c.2-15.9.3-16.7 2.2-16.7 1.8 0 2-.7 2-5.5v-5.5h10v4.9c0 4 .3 5 2 5.4 1.9.5 2 1.4 2 17.1v16.6h13v-3.3c0-3.8.6-4.8 2.6-4 .8.3 1.4 1.9 1.4 3.8 0 2.7.4 3.4 2.3 3.7 2 .3 2.2.9 2.5 6.5l.3 6.2 3.7.3 3.7.3.6 9c.3 4.9.7-38.7 1-97l.4-106 2.7-5.7c3.4-7.3 10.3-14.2 17.6-17.6 4.8-2.3 7.4-2.8 16-3l10.2-.4v-8.4c0-8.3 0-8.4 2.5-8.4s2.5.1 2.5 8.5v8.5h6l.2-18.8.3-18.7 24-.3c13.2-.1 25 0 26.3.3 2.2.5 2.2.8 2.2 17.1v16.5l2.3-.3c2-.3 2.2-.9 2.5-6.6.3-6.2.3-6.3 3-6 2.5.3 2.7.7 3 5.7l.3 5.3 3.7-.7c26-4.6 60.8-16.6 87.1-30 111.4-56.7 171.5-166.9 152.1-278.8-19.4-111.6-114.4-197.4-247.5-223.6-26.8-5.3-56.8-8.3-78.9-7.9-7.2.2-67.5.5-134.1.8zm147.3 79.1c13.9 1.5 23.1 3.5 36.3 7.9 51 16.9 88.4 58.8 96.4 108 1.9 11.8 1.9 22.5 0 35.8-6.7 47.1-26.1 90.7-58.1 130.7-17.2 21.5-45.1 47.6-69.2 64.8-10.3 7.3-13.8 8.7-22.7 8.7-7.7 0-11.4-1.8-27.3-12.6-16.9-11.6-25.3-18.4-40.1-32.8-36.8-36.1-62.3-79.9-74.4-128.2-9-35.7-9.2-59.3-.7-85.9 10.2-31.8 35.6-61.2 67.4-78.1 28.2-15 61.8-21.7 92.4-18.3z"/><path d="M1139.8 466.9c-28.5 6.2-52.9 25.1-65.8 51-8.5 17.1-11.6 40.4-7.7 58.6 5.7 26.9 23.4 50.2 48 63.5 15.3 8.3 27.9 11.3 47.2 11.3 11.9 0 15.5-.4 23.9-2.6 33.3-8.9 58.4-32.8 68.3-65.4 2.3-7.8 2.6-10.5 2.7-24.3.1-13.2-.2-16.7-2.2-23.8-4.5-16.7-12.7-30.6-25.4-42.8-12.4-12.1-26-20-42.3-24.4-11.5-3.2-34.6-3.7-46.7-1.1zM470 693.7l.1 20.8 6.9 8.5 7 8.4v13.7c0 11.2.3 13.8 1.5 14.3 1.3.5 1.5 7.4 1.5 53.6v53h2.4c1.3 0 3.8.3 5.5.6l3.1.6V927l2.3.5c1.2.3 18 3.2 37.2 6.5 19.3 3.4 37.8 7 41.3 8.1 8.7 2.9 20.4 10.9 25.8 17.8 11.6 14.8 10.7 31.9-2.7 49.8-12.5 16.7-46.3 28-90.3 30.2l-13.1.6-.3 74.3-.2 74.3 64.6 32c35.6 17.6 64.9 31.7 65.3 31.4.3-.4 9-53.5 19.2-118.1l18.6-117.3-4.9-122.3c-2.6-67.3-4.7-124.5-4.5-127.3.2-4.4 1-2.1 6.9 19.5l6.8 24.5 1.5 29c.8 15.9 1.5 30.6 1.5 32.6v3.6l9.7 2.1c5.3 1.2 9.8 2 10.1 1.8.2-.3 2.6-18.2 5.3-39.8l5-39.3 5.2-5.3c2.8-2.9 5.3-4.8 5.5-4.2.2.5-2 22.2-4.8 48.2l-5.2 47.3 1.6 79 1.5 79 4.6 26.4c5.4 31.2 10.9 59.8 17.1 88.1 4.8 21.9 15.2 63.7 16.3 65.7.7 1.3 12.8-13.2 22.8-27.2 29.5-41.2 49.6-97.5 57.7-161.5 4.2-32.8 3-55.7-5.9-116-4.1-27.8-7.6-39.9-17.4-60.5-10.5-22-23.1-40.1-40.8-58.6-42.1-43.9-101.4-75.1-180-94.8-35.4-8.9-97-26.9-103.7-30.4-3.3-1.7-6.4-3.3-6.8-3.5-.5-.2-.8 9-.8 20.5zM340 1083.5c0 63.3-.5 58.5 5.8 56.9l2.2-.6V1059h18v-14.5c0-8-.3-14.5-.7-14.5-.5 0-6-.9-12.3-2-6.3-1.1-11.8-2-12.2-2-.5 0-.8 25.9-.8 57.5z"/></svg>