<?xml version="1.0" standalone="no"?>
<!DOCTYPE svg PUBLIC "-//W3C//DTD SVG 20010904//EN"
 "http://www.w3.org/TR/2001/REC-SVG-20010904/DTD/svg10.dtd">
<svg version="1.0" xmlns="http://www.w3.org/2000/svg"
 width="1688.000000pt" height="1688.000000pt" viewBox="0 0 1688.000000 1688.000000"
 preserveAspectRatio="xMidYMid meet">
<metadata>
Created by potrace 1.11, written by Peter Selinger 2001-2013
</metadata>
<g transform="translate(0.000000,1688.000000) scale(0.100000,-0.100000)"
fill="#000000" stroke="none">
<path d="M5130 13659 c-847 -58 -1534 -292 -2040 -695 -211 -168 -435 -428
-580 -673 -220 -372 -343 -763 -392 -1241 -19 -184 -16 -680 5 -850 48 -387
135 -714 264 -992 40 -85 48 -97 67 -93 34 8 354 65 366 65 7 0 10 -108 10
-320 l0 -320 93 -90 c114 -111 305 -260 332 -260 11 1 46 7 78 15 67 15 65 17
69 -65 l3 -54 65 -38 c86 -50 287 -140 423 -190 125 -46 331 -108 359 -108 17
0 18 13 18 225 l0 225 55 0 55 0 0 535 c0 467 2 536 15 541 12 5 15 31 15 144
l0 138 70 84 70 83 0 294 0 294 -32 64 c-37 77 -49 183 -26 248 l14 41 -40
-20 c-54 -27 -155 -26 -217 1 -45 20 -47 20 -118 2 -96 -24 -188 -66 -212 -97
-19 -25 -19 -24 -19 222 l0 247 29 43 c35 51 98 109 143 132 35 18 65 19 205
9 l92 -7 98 45 c72 34 116 48 166 53 l67 7 0 -217 0 -216 43 27 c63 40 213
108 290 132 172 53 583 86 887 71 433 -22 789 -95 1207 -249 104 -38 216 -75
251 -81 86 -17 230 -8 311 20 132 46 257 154 317 272 54 106 54 105 54 1023 0
926 1 904 -57 1025 -37 78 -159 197 -244 237 -192 92 -1027 245 -1624 298
-214 19 -811 28 -1005 14z"/>
<path d="M10295 13430 l-1210 -5 -57 -23 c-69 -28 -162 -95 -206 -147 -49 -60
-92 -148 -107 -222 -13 -58 -15 -529 -15 -3280 0 -2563 3 -3213 13 -3214 6 -1
82 -4 167 -8 l155 -6 5 -475 5 -475 45 0 45 0 3 111 c2 102 4 112 22 117 19 5
20 15 20 205 0 191 1 200 20 205 19 5 20 14 20 295 0 248 2 291 15 296 13 5
15 78 15 576 0 563 0 570 20 570 19 0 20 7 20 230 l0 230 50 0 50 0 0 100 0
100 130 0 130 0 0 -94 0 -95 45 -7 45 -6 0 -229 0 -229 25 0 25 0 0 -575 0
-575 30 0 30 0 0 -179 0 -180 53 -3 52 -3 3 -312 2 -313 25 0 25 0 0 179 c0
191 0 191 50 191 17 0 19 9 22 68 l3 67 258 3 257 2 0 -70 c0 -63 2 -70 20
-70 19 0 20 -7 20 -210 l0 -210 30 0 30 0 0 64 c0 63 1 65 28 68 l27 3 3 168
c2 159 3 167 22 167 18 0 20 7 20 55 l0 55 50 0 50 0 0 -49 c0 -40 3 -50 20
-54 19 -5 20 -14 20 -171 l0 -166 65 0 65 0 0 33 c0 38 6 48 26 40 8 -3 14
-19 14 -38 0 -27 4 -34 23 -37 20 -3 22 -9 25 -65 l3 -62 37 -3 37 -3 6 -90
c3 -49 7 387 10 970 l4 1060 27 57 c34 73 103 142 176 176 48 23 74 28 160 30
l102 4 0 84 c0 83 0 84 25 84 25 0 25 -1 25 -85 l0 -85 30 0 30 0 2 188 3 187
240 3 c132 1 250 0 263 -3 22 -5 22 -8 22 -171 l0 -165 23 3 c20 3 22 9 25 66
3 62 3 63 30 60 25 -3 27 -7 30 -57 l3 -53 37 7 c260 46 608 166 871 300 1114
567 1715 1669 1521 2788 -194 1116 -1144 1974 -2475 2236 -268 53 -568 83
-789 79 -72 -2 -675 -5 -1341 -8z m1473 -791 c139 -15 231 -35 363 -79 510
-169 884 -588 964 -1080 19 -118 19 -225 0 -358 -67 -471 -261 -907 -581
-1307 -172 -215 -451 -476 -692 -648 -103 -73 -138 -87 -227 -87 -77 0 -114
18 -273 126 -169 116 -253 184 -401 328 -368 361 -623 799 -744 1282 -90 357
-92 593 -7 859 102 318 356 612 674 781 282 150 618 217 924 183z"/>
<path d="M11398 12211 c-285 -62 -529 -251 -658 -510 -85 -171 -116 -404 -77
-586 57 -269 234 -502 480 -635 153 -83 279 -113 472 -113 119 0 155 4 239 26
333 89 584 328 683 654 23 78 26 105 27 243 1 132 -2 167 -22 238 -45 167
-127 306 -254 428 -124 121 -260 200 -423 244 -115 32 -346 37 -467 11z"/>
<path d="M4700 9943 l1 -208 69 -85 70 -84 0 -137 c0 -112 3 -138 15 -143 13
-5 15 -74 15 -536 l0 -530 24 0 c13 0 38 -3 55 -6 l31 -6 0 -299 0 -299 23 -5
c12 -3 180 -32 372 -65 193 -34 378 -70 413 -81 87 -29 204 -109 258 -178 116
-148 107 -319 -27 -498 -125 -167 -463 -280 -903 -302 l-131 -6 -3 -743 -2
-743 646 -320 c356 -176 649 -317 653 -314 3 4 90 535 192 1181 l186 1173 -49
1223 c-26 673 -47 1245 -45 1273 2 44 10 21 69 -195 l68 -245 15 -290 c8 -159
15 -306 15 -326 l0 -36 97 -21 c53 -12 98 -20 101 -18 2 3 26 182 53 398 l50
393 52 53 c28 29 53 48 55 42 2 -5 -20 -222 -48 -482 l-52 -473 16 -790 15
-790 46 -264 c54 -312 109 -598 171 -881 48 -219 152 -637 163 -657 7 -13 128
132 228 272 295 412 496 975 577 1615 42 328 30 557 -59 1160 -41 278 -76 399
-174 605 -105 220 -231 401 -408 586 -421 439 -1014 751 -1800 948 -354 89
-970 269 -1037 304 -33 17 -64 33 -68 35 -5 2 -8 -90 -8 -205z"/>
<path d="M3400 6045 c0 -633 -5 -585 58 -569 l22 6 0 404 0 404 90 0 90 0 0
145 c0 80 -3 145 -7 145 -5 0 -60 9 -123 20 -63 11 -118 20 -122 20 -5 0 -8
-259 -8 -575z"/>
</g>
</svg>
